
<svg
   viewBox="0 0 1605 851"
   id="svg4824"
   version="1.1">


 
  <g

     id="layer1"
     transform="translate(1145.83,659.44847)">
    <g
       id="g4226">
      <rect
         y="-155.01898"
         x="-1145.83"
         height="347.16748"
         width="1605.5378"
         id="rect4209"
         style="opacity:1;fill:#b0b0b0;fill-opacity:1;stroke:none;stroke-width:3.11999989;stroke-linecap:butt;stroke-linejoin:miter;stroke-miterlimit:4;stroke-dasharray:3208.07175206;stroke-dashoffset:0;stroke-opacity:1" />
      <rect
         y="-659.44849"
         x="-1145.439"
         height="505.11304"
         width="1605.5378"
         id="rect4209-4"
         style="opacity:1;fill:#76b0e4;fill-opacity:1;stroke:none;stroke-width:3.11999989;stroke-linecap:butt;stroke-linejoin:miter;stroke-miterlimit:4;stroke-dasharray:3208.07175206;stroke-dashoffset:0;stroke-opacity:1" />
    </g>
    <g
       id="g4234">
      <path
         d="M -1148.1182,50.951778 A 835.56024,34.550591 0 0 1 -285.98181,35.590398 835.56024,34.550591 0 0 1 377.31791,63.060162 835.56024,34.550591 0 0 1 4.4988857,98.686032"
 
         id="path4230"
         style="opacity:1;fill:#000000;fill-opacity:1;stroke:none;stroke-width:3.11999989;stroke-linecap:butt;stroke-linejoin:miter;stroke-miterlimit:4;stroke-dasharray:3208.07175206;stroke-dashoffset:0;stroke-opacity:1" />
      <path
         d="m -657.41448,106.51827 a 194.00981,54.145714 0 0 1 60.79642,-53.388911 194.00981,54.145714 0 0 1 197.63733,-9.790598 194.00981,54.145714 0 0 1 122.91925,44.287972"
  
         style="opacity:1;fill:#000000;fill-opacity:1;stroke:none;stroke-width:3.11999989;stroke-linecap:butt;stroke-linejoin:miter;stroke-miterlimit:4;stroke-dasharray:3208.07175206;stroke-dashoffset:0;stroke-opacity:1" />
    </g>
    <g
       id="id673_"
       transform="matrix(-1.2860225,0,0,1.9336529,534.54865,-707.15228)">
      <g
         id="id506_">
        <path
           id="id440_"
           d="m 686.3,393.5 -0.9,-1.2 12.9,-9.7 -12.9,-9.3 0.9,-1.2 13.7,9.9 c 0.2,0.1 0.3,0.4 0.3,0.6 0,0.2 -0.1,0.5 -0.3,0.6 l -13.7,10.3 z"
  
           style="fill:#c1c2c1" />
      </g>
      <rect
         id="id429_"
         x="682.09998"
         y="369.10001"
         width="7.5"
         height="23.799999"
         style="fill:#c1c2c1" />
      <path
         id="id428_"
         d="m 1060.2,215 -121.2,36.6 283.9,11.7 58.6,-226.1 c 0.9,-3.4 -1.7,-6.7 -5.2,-6.7 l -33.4,0 c -6.6,0 -12.9,2.9 -17.2,8 L 1098,190.2 c -10,11.7 -23.1,20.4 -37.8,24.8 z"

         style="fill:#cecfcf" />
      <path
         id="id438_"
         d="m 948,250.4 112.7,-34 c 15,-4.5 28.3,-13.3 38.5,-25.3 L 1226.9,39.4 c 4,-4.7 9.8,-7.5 16,-7.5 l 33.4,0 c 1.2,0 2.3,0.5 3,1.5 0.7,0.9 1,2.2 0.7,3.3 l -58.3,225 L 948,250.4 Z"

         style="fill:#d8d9d8" />
      <g
         id="id499_">
        <path
           id="id435_"
           d="m 207.8,393.5 -0.8,-1.3 12,-7.6 -9.5,-8.1 1,-1.1 10.2,8.8 c 0.2,0.2 0.3,0.4 0.3,0.6 0,0.2 -0.1,0.5 -0.3,0.6 l -12.9,8.1 z"
  
           style="fill:#bfbfbe" />
      </g>
      <g
         id="id497_">
        <rect
           id="id500_"
           x="207.3"
           y="365.60001"
           transform="matrix(0.988,0.1543,-0.1543,0.988,61.0434,-27.7877)"
           width="4.5"
           height="27.5"
           style="fill:#c1c2c1" />
      </g>
      <path
         id="id426_"
         d="m 427.3,244.2 c -36.7,0 -189.1,1.8 -232.4,14.2 -43.4,12.4 -54.2,20.6 -58.3,24.1 -4.1,3.5 -10.1,10.7 -10.1,10.7 0,0 -2.9,0.1 -5.3,1.4 -2.4,1.3 -24.6,11.9 -30.5,15.4 -5.9,3.5 -22,16.8 5.2,29.3 27.2,12.5 65.1,29.9 142.8,29.9 77.7,0 549.1,0 614,0 64.9,0 133.8,-4.8 216.7,-26.7 82.9,-21.9 154.9,-44 163.7,-47.8 8.8,-3.8 13.3,-20.1 15.8,-27.9 2.5,-7.8 -0.5,-10.8 -15.3,-12.1 -14.8,-1.3 -230.1,-10.6 -301.5,-10.6 -82.2,0.1 -504.8,0.1 -504.8,0.1 z"

         style="fill:#cecfcf" />
      <path
         id="id727_"
         d="m 238.7,366.1 c -76.6,0 -113.9,-17 -141.1,-29.4 l -0.5,-0.2 c -8.7,-4 -13.4,-8.3 -13.6,-12.5 -0.2,-4.8 5.3,-9.4 8.6,-11.4 4.2,-2.5 16.9,-8.7 24.4,-12.4 3,-1.5 5.3,-2.6 6,-2.9 1.7,-0.9 4,-1 4,-1 l 1.3,-0.1 0.9,-1 c 0.1,-0.1 5.8,-7 9.7,-10.3 3.1,-2.7 12.7,-10.8 57.2,-23.5 40.3,-11.6 180.8,-14.1 231.6,-14.1 l 504.9,0 c 72.3,0 286.8,9.3 301.2,10.5 7.5,0.6 11.9,1.8 13,3.5 0.2,0.3 0.8,1.2 -0.3,4.7 l -0.6,2 c -2.3,7.4 -6.7,21.2 -13.5,24.1 -8.5,3.6 -79,25.4 -163.3,47.6 -88.7,23.4 -159,26.6 -216,26.6 l -613.9,0 z"

         style="fill:#e5e6e4" />
      <g
         id="id427_">
        <path
           id="id430_"
           d="m 151.7,299.3 24.3,-8.1 0,-9.2 -38.9,0 c -0.2,0.2 -0.4,0.3 -0.6,0.5 -4.1,3.5 -10.1,10.7 -10.1,10.7 l 11.6,0 13.7,6.1 z"
  
           style="fill:#6a91b0" />
      </g>
      <g
         id="id805_">
        <path
           id="id806_"
           d="m 268.2,287.3 -5.1,0 c -1.1,0 -1.9,0.9 -1.9,1.9 l 0,8.2 c 0,1.1 0.9,1.9 1.9,1.9 l 5.1,0 c 1.1,0 1.9,-0.9 1.9,-1.9 l 0,-8.2 c 0.1,-1.1 -0.8,-1.9 -1.9,-1.9 z"
  
           style="fill:#6a91b0" />
        <path
           id="id807_"
           d="m 283.8,287.3 -5.1,0 c -1.1,0 -1.9,0.9 -1.9,1.9 l 0,8.2 c 0,1.1 0.9,1.9 1.9,1.9 l 5.1,0 c 1.1,0 1.9,-0.9 1.9,-1.9 l 0,-8.2 c 0,-1.1 -0.8,-1.9 -1.9,-1.9 z"
  
           style="fill:#6a91b0" />
        <path
           id="id808_"
           d="m 299.4,287.3 -5.1,0 c -1.1,0 -1.9,0.9 -1.9,1.9 l 0,8.2 c 0,1.1 0.9,1.9 1.9,1.9 l 5.1,0 c 1.1,0 1.9,-0.9 1.9,-1.9 l 0,-8.2 c 0,-1.1 -0.8,-1.9 -1.9,-1.9 z"
  
           style="fill:#6a91b0" />
        <path
           id="id809_"
           d="m 315,287.3 -5.1,0 c -1.1,0 -1.9,0.9 -1.9,1.9 l 0,8.2 c 0,1.1 0.9,1.9 1.9,1.9 l 5.1,0 c 1.1,0 1.9,-0.9 1.9,-1.9 l 0,-8.2 c 0,-1.1 -0.8,-1.9 -1.9,-1.9 z"
  
           style="fill:#6a91b0" />
        <path
           id="id810_"
           d="m 330.6,287.3 -5.1,0 c -1.1,0 -1.9,0.9 -1.9,1.9 l 0,8.2 c 0,1.1 0.9,1.9 1.9,1.9 l 5.1,0 c 1.1,0 1.9,-0.9 1.9,-1.9 l 0,-8.2 c 0,-1.1 -0.9,-1.9 -1.9,-1.9 z"
  
           style="fill:#6a91b0" />
        <path
           id="id811_"
           d="m 346.2,287.3 -5.1,0 c -1.1,0 -1.9,0.9 -1.9,1.9 l 0,8.2 c 0,1.1 0.9,1.9 1.9,1.9 l 5.1,0 c 1.1,0 1.9,-0.9 1.9,-1.9 l 0,-8.2 c 0,-1.1 -0.9,-1.9 -1.9,-1.9 z"
  
           style="fill:#6a91b0" />
        <path
           id="id812_"
           d="m 361.8,287.3 -5.1,0 c -1.1,0 -1.9,0.9 -1.9,1.9 l 0,8.2 c 0,1.1 0.9,1.9 1.9,1.9 l 5.1,0 c 1.1,0 1.9,-0.9 1.9,-1.9 l 0,-8.2 c 0,-1.1 -0.9,-1.9 -1.9,-1.9 z"
  
           style="fill:#6a91b0" />
        <path
           id="id813_"
           d="m 377.3,287.3 -5.1,0 c -1.1,0 -1.9,0.9 -1.9,1.9 l 0,8.2 c 0,1.1 0.9,1.9 1.9,1.9 l 5.1,0 c 1.1,0 1.9,-0.9 1.9,-1.9 l 0,-8.2 c 0.1,-1.1 -0.8,-1.9 -1.9,-1.9 z"
  
           style="fill:#6a91b0" />
        <path
           id="id814_"
           d="m 392.9,287.3 -5.1,0 c -1.1,0 -1.9,0.9 -1.9,1.9 l 0,8.2 c 0,1.1 0.9,1.9 1.9,1.9 l 5.1,0 c 1.1,0 1.9,-0.9 1.9,-1.9 l 0,-8.2 c 0.1,-1.1 -0.8,-1.9 -1.9,-1.9 z"
  
           style="fill:#6a91b0" />
        <path
           id="id815_"
           d="m 408.5,287.3 -5.1,0 c -1.1,0 -1.9,0.9 -1.9,1.9 l 0,8.2 c 0,1.1 0.9,1.9 1.9,1.9 l 5.1,0 c 1.1,0 1.9,-0.9 1.9,-1.9 l 0,-8.2 c 0.1,-1.1 -0.8,-1.9 -1.9,-1.9 z"
  
           style="fill:#6a91b0" />
        <path
           id="id816_"
           d="m 424.1,287.3 -5.1,0 c -1.1,0 -1.9,0.9 -1.9,1.9 l 0,8.2 c 0,1.1 0.9,1.9 1.9,1.9 l 5.1,0 c 1.1,0 1.9,-0.9 1.9,-1.9 l 0,-8.2 c 0,-1.1 -0.8,-1.9 -1.9,-1.9 z"
  
           style="fill:#6a91b0" />
        <path
           id="id817_"
           d="m 439.7,287.3 -5.1,0 c -1.1,0 -1.9,0.9 -1.9,1.9 l 0,8.2 c 0,1.1 0.9,1.9 1.9,1.9 l 5.1,0 c 1.1,0 1.9,-0.9 1.9,-1.9 l 0,-8.2 c 0,-1.1 -0.8,-1.9 -1.9,-1.9 z"
  
           style="fill:#6a91b0" />
        <path
           id="id818_"
           d="m 455.3,287.3 -5.1,0 c -1.1,0 -1.9,0.9 -1.9,1.9 l 0,8.2 c 0,1.1 0.9,1.9 1.9,1.9 l 5.1,0 c 1.1,0 1.9,-0.9 1.9,-1.9 l 0,-8.2 c 0,-1.1 -0.8,-1.9 -1.9,-1.9 z"
  
           style="fill:#6a91b0" />
        <path
           id="id819_"
           d="m 470.9,287.3 -5.1,0 c -1.1,0 -1.9,0.9 -1.9,1.9 l 0,8.2 c 0,1.1 0.9,1.9 1.9,1.9 l 5.1,0 c 1.1,0 1.9,-0.9 1.9,-1.9 l 0,-8.2 c 0,-1.1 -0.9,-1.9 -1.9,-1.9 z"
  
           style="fill:#6a91b0" />
        <path
           id="id820_"
           d="m 486.5,287.3 -5.1,0 c -1.1,0 -1.9,0.9 -1.9,1.9 l 0,8.2 c 0,1.1 0.9,1.9 1.9,1.9 l 5.1,0 c 1.1,0 1.9,-0.9 1.9,-1.9 l 0,-8.2 c 0,-1.1 -0.9,-1.9 -1.9,-1.9 z"
  
           style="fill:#6a91b0" />
        <path
           id="id821_"
           d="m 552.6,287.3 -5.1,0 c -1.1,0 -1.9,0.9 -1.9,1.9 l 0,8.2 c 0,1.1 0.9,1.9 1.9,1.9 l 5.1,0 c 1.1,0 1.9,-0.9 1.9,-1.9 l 0,-8.2 c 0,-1.1 -0.8,-1.9 -1.9,-1.9 z"
  
           style="fill:#6a91b0" />
        <path
           id="id822_"
           d="m 568.2,287.3 -5.1,0 c -1.1,0 -1.9,0.9 -1.9,1.9 l 0,8.2 c 0,1.1 0.9,1.9 1.9,1.9 l 5.1,0 c 1.1,0 1.9,-0.9 1.9,-1.9 l 0,-8.2 c 0,-1.1 -0.9,-1.9 -1.9,-1.9 z"
  
           style="fill:#6a91b0" />
        <path
           id="id823_"
           d="m 583.8,287.3 -5.1,0 c -1.1,0 -1.9,0.9 -1.9,1.9 l 0,8.2 c 0,1.1 0.9,1.9 1.9,1.9 l 5.1,0 c 1.1,0 1.9,-0.9 1.9,-1.9 l 0,-8.2 c 0,-1.1 -0.9,-1.9 -1.9,-1.9 z"
  
           style="fill:#6a91b0" />
        <path
           id="id824_"
           d="m 599.4,287.3 -5.1,0 c -1.1,0 -1.9,0.9 -1.9,1.9 l 0,8.2 c 0,1.1 0.9,1.9 1.9,1.9 l 5.1,0 c 1.1,0 1.9,-0.9 1.9,-1.9 l 0,-8.2 c 0,-1.1 -0.9,-1.9 -1.9,-1.9 z"
  
           style="fill:#6a91b0" />
        <path
           id="id825_"
           d="m 614.9,287.3 -5.1,0 c -1.1,0 -1.9,0.9 -1.9,1.9 l 0,8.2 c 0,1.1 0.9,1.9 1.9,1.9 l 5.1,0 c 1.1,0 1.9,-0.9 1.9,-1.9 l 0,-8.2 c 0.1,-1.1 -0.8,-1.9 -1.9,-1.9 z"
  
           style="fill:#6a91b0" />
        <path
           id="id826_"
           d="m 630.5,287.3 -5.1,0 c -1.1,0 -1.9,0.9 -1.9,1.9 l 0,8.2 c 0,1.1 0.9,1.9 1.9,1.9 l 5.1,0 c 1.1,0 1.9,-0.9 1.9,-1.9 l 0,-8.2 c 0.1,-1.1 -0.8,-1.9 -1.9,-1.9 z"
  
           style="fill:#6a91b0" />
        <path
           id="id827_"
           d="m 646.1,287.3 -5.1,0 c -1.1,0 -1.9,0.9 -1.9,1.9 l 0,8.2 c 0,1.1 0.9,1.9 1.9,1.9 l 5.1,0 c 1.1,0 1.9,-0.9 1.9,-1.9 l 0,-8.2 c 0.1,-1.1 -0.8,-1.9 -1.9,-1.9 z"
  
           style="fill:#6a91b0" />
        <path
           id="id828_"
           d="m 661.7,287.3 -5.1,0 c -1.1,0 -1.9,0.9 -1.9,1.9 l 0,8.2 c 0,1.1 0.9,1.9 1.9,1.9 l 5.1,0 c 1.1,0 1.9,-0.9 1.9,-1.9 l 0,-8.2 c 0,-1.1 -0.8,-1.9 -1.9,-1.9 z"
  
           style="fill:#6a91b0" />
        <path
           id="id829_"
           d="m 677.3,287.3 -5.1,0 c -1.1,0 -1.9,0.9 -1.9,1.9 l 0,8.2 c 0,1.1 0.9,1.9 1.9,1.9 l 5.1,0 c 1.1,0 1.9,-0.9 1.9,-1.9 l 0,-8.2 c 0,-1.1 -0.8,-1.9 -1.9,-1.9 z"
  
           style="fill:#6a91b0" />
        <path
           id="id830_"
           d="m 692.9,287.3 -5.1,0 c -1.1,0 -1.9,0.9 -1.9,1.9 l 0,8.2 c 0,1.1 0.9,1.9 1.9,1.9 l 5.1,0 c 1.1,0 1.9,-0.9 1.9,-1.9 l 0,-8.2 c 0,-1.1 -0.8,-1.9 -1.9,-1.9 z"
  
           style="fill:#6a91b0" />
        <path
           id="id831_"
           d="m 708.5,287.3 -5.1,0 c -1.1,0 -1.9,0.9 -1.9,1.9 l 0,8.2 c 0,1.1 0.9,1.9 1.9,1.9 l 5.1,0 c 1.1,0 1.9,-0.9 1.9,-1.9 l 0,-8.2 c 0,-1.1 -0.9,-1.9 -1.9,-1.9 z"
  
           style="fill:#6a91b0" />
        <path
           id="id832_"
           d="m 724.1,287.3 -5.1,0 c -1.1,0 -1.9,0.9 -1.9,1.9 l 0,8.2 c 0,1.1 0.9,1.9 1.9,1.9 l 5.1,0 c 1.1,0 1.9,-0.9 1.9,-1.9 l 0,-8.2 c 0,-1.1 -0.9,-1.9 -1.9,-1.9 z"
  
           style="fill:#6a91b0" />
        <path
           id="id833_"
           d="m 739.7,287.3 -5.1,0 c -1.1,0 -1.9,0.9 -1.9,1.9 l 0,8.2 c 0,1.1 0.9,1.9 1.9,1.9 l 5.1,0 c 1.1,0 1.9,-0.9 1.9,-1.9 l 0,-8.2 c 0,-1.1 -0.9,-1.9 -1.9,-1.9 z"
  
           style="fill:#6a91b0" />
        <path
           id="id834_"
           d="m 755.2,287.3 -5.1,0 c -1.1,0 -1.9,0.9 -1.9,1.9 l 0,8.2 c 0,1.1 0.9,1.9 1.9,1.9 l 5.1,0 c 1.1,0 1.9,-0.9 1.9,-1.9 l 0,-8.2 c 0.1,-1.1 -0.8,-1.9 -1.9,-1.9 z"
  
           style="fill:#6a91b0" />
        <path
           id="id835_"
           d="m 770.8,287.3 -5.1,0 c -1.1,0 -1.9,0.9 -1.9,1.9 l 0,8.2 c 0,1.1 0.9,1.9 1.9,1.9 l 5.1,0 c 1.1,0 1.9,-0.9 1.9,-1.9 l 0,-8.2 c 0.1,-1.1 -0.8,-1.9 -1.9,-1.9 z"
  
           style="fill:#6a91b0" />
        <path
           id="id836_"
           d="m 786.4,287.3 -5.1,0 c -1.1,0 -1.9,0.9 -1.9,1.9 l 0,8.2 c 0,1.1 0.9,1.9 1.9,1.9 l 5.1,0 c 1.1,0 1.9,-0.9 1.9,-1.9 l 0,-8.2 c 0,-1.1 -0.8,-1.9 -1.9,-1.9 z"
  
           style="fill:#6a91b0" />
        <path
           id="id837_"
           d="m 802,287.3 -5.1,0 c -1.1,0 -1.9,0.9 -1.9,1.9 l 0,8.2 c 0,1.1 0.9,1.9 1.9,1.9 l 5.1,0 c 1.1,0 1.9,-0.9 1.9,-1.9 l 0,-8.2 c 0,-1.1 -0.8,-1.9 -1.9,-1.9 z"
  
           style="fill:#6a91b0" />
        <path
           id="id838_"
           d="m 817.6,287.3 -5.1,0 c -1.1,0 -1.9,0.9 -1.9,1.9 l 0,8.2 c 0,1.1 0.9,1.9 1.9,1.9 l 5.1,0 c 1.1,0 1.9,-0.9 1.9,-1.9 l 0,-8.2 c 0,-1.1 -0.8,-1.9 -1.9,-1.9 z"
  
           style="fill:#6a91b0" />
        <path
           id="id839_"
           d="m 833.2,287.3 -5.1,0 c -1.1,0 -1.9,0.9 -1.9,1.9 l 0,8.2 c 0,1.1 0.9,1.9 1.9,1.9 l 5.1,0 c 1.1,0 1.9,-0.9 1.9,-1.9 l 0,-8.2 c 0,-1.1 -0.9,-1.9 -1.9,-1.9 z"
  
           style="fill:#6a91b0" />
        <path
           id="id840_"
           d="m 848.8,287.3 -5.1,0 c -1.1,0 -1.9,0.9 -1.9,1.9 l 0,8.2 c 0,1.1 0.9,1.9 1.9,1.9 l 5.1,0 c 1.1,0 1.9,-0.9 1.9,-1.9 l 0,-8.2 c 0,-1.1 -0.9,-1.9 -1.9,-1.9 z"
  
           style="fill:#6a91b0" />
        <path
           id="id841_"
           d="m 864.4,287.3 -5.1,0 c -1.1,0 -1.9,0.9 -1.9,1.9 l 0,8.2 c 0,1.1 0.9,1.9 1.9,1.9 l 5.1,0 c 1.1,0 1.9,-0.9 1.9,-1.9 l 0,-8.2 c 0,-1.1 -0.9,-1.9 -1.9,-1.9 z"
  
           style="fill:#6a91b0" />
        <path
           id="id842_"
           d="m 879.9,287.3 -5.1,0 c -1.1,0 -1.9,0.9 -1.9,1.9 l 0,8.2 c 0,1.1 0.9,1.9 1.9,1.9 l 5.1,0 c 1.1,0 1.9,-0.9 1.9,-1.9 l 0,-8.2 c 0.1,-1.1 -0.8,-1.9 -1.9,-1.9 z"
  
           style="fill:#6a91b0" />
        <path
           id="id843_"
           d="m 895.5,287.3 -5.1,0 c -1.1,0 -1.9,0.9 -1.9,1.9 l 0,8.2 c 0,1.1 0.9,1.9 1.9,1.9 l 5.1,0 c 1.1,0 1.9,-0.9 1.9,-1.9 l 0,-8.2 c 0.1,-1.1 -0.8,-1.9 -1.9,-1.9 z"
  
           style="fill:#6a91b0" />
        <path
           id="id844_"
           d="m 911.1,287.3 -5.1,0 c -1.1,0 -1.9,0.9 -1.9,1.9 l 0,8.2 c 0,1.1 0.9,1.9 1.9,1.9 l 5.1,0 c 1.1,0 1.9,-0.9 1.9,-1.9 l 0,-8.2 c 0.1,-1.1 -0.8,-1.9 -1.9,-1.9 z"
  
           style="fill:#6a91b0" />
        <path
           id="id845_"
           d="m 926.7,287.3 -5.1,0 c -1.1,0 -1.9,0.9 -1.9,1.9 l 0,8.2 c 0,1.1 0.9,1.9 1.9,1.9 l 5.1,0 c 1.1,0 1.9,-0.9 1.9,-1.9 l 0,-8.2 c 0,-1.1 -0.8,-1.9 -1.9,-1.9 z"
  
           style="fill:#6a91b0" />
        <path
           id="id846_"
           d="m 942.3,287.3 -5.1,0 c -1.1,0 -1.9,0.9 -1.9,1.9 l 0,8.2 c 0,1.1 0.9,1.9 1.9,1.9 l 5.1,0 c 1.1,0 1.9,-0.9 1.9,-1.9 l 0,-8.2 c 0,-1.1 -0.8,-1.9 -1.9,-1.9 z"
  
           style="fill:#6a91b0" />
        <path
           id="id847_"
           d="m 957.9,287.3 -5.1,0 c -1.1,0 -1.9,0.9 -1.9,1.9 l 0,8.2 c 0,1.1 0.9,1.9 1.9,1.9 l 5.1,0 c 1.1,0 1.9,-0.9 1.9,-1.9 l 0,-8.2 c 0,-1.1 -0.8,-1.9 -1.9,-1.9 z"
  
           style="fill:#6a91b0" />
        <path
           id="id848_"
           d="m 973.5,287.3 -5.1,0 c -1.1,0 -1.9,0.9 -1.9,1.9 l 0,8.2 c 0,1.1 0.9,1.9 1.9,1.9 l 5.1,0 c 1.1,0 1.9,-0.9 1.9,-1.9 l 0,-8.2 c 0,-1.1 -0.9,-1.9 -1.9,-1.9 z"
  
           style="fill:#6a91b0" />
        <path
           id="id849_"
           d="m 989.1,287.3 -5.1,0 c -1.1,0 -1.9,0.9 -1.9,1.9 l 0,8.2 c 0,1.1 0.9,1.9 1.9,1.9 l 5.1,0 c 1.1,0 1.9,-0.9 1.9,-1.9 l 0,-8.2 c 0,-1.1 -0.9,-1.9 -1.9,-1.9 z"
  
           style="fill:#6a91b0" />
      </g>
      <path
         id="id434_"
         d="m 239.6,320.8 -14.8,0 c -3,0 -5.4,-2.4 -5.4,-5.4 l 0,-46 c 0,-3 2.4,-5.4 5.4,-5.4 l 14.8,0 c 3,0 5.4,2.4 5.4,5.4 l 0,46 c 0,3 -2.4,5.4 -5.4,5.4 z"

         style="fill:#cccccb" />
      <path
         id="id436_"
         d="m 224.8,319.3 c -2.1,0 -3.9,-1.7 -3.9,-3.9 l 0,-46 c 0,-2.1 1.7,-3.9 3.9,-3.9 l 14.8,0 c 2.1,0 3.9,1.7 3.9,3.9 l 0,46 c 0,2.1 -1.7,3.9 -3.9,3.9 l -14.8,0 z"

         style="fill:#d8d9d8" />
      <path
         id="id502_"
         d="m 204.8,367.9 c -19,-1.4 -35.1,-4 -49,-7.2 l -2.1,10.3 c 0,0 26,6.1 49.6,7.9 l 1.5,-11 z"

         style="fill:#bfbfbe" />
      <circle
         id="id496_"
         cx="207.39999"
         cy="392.89999"
         r="10.8"
         style="fill:#333333" />
      <circle
         id="id498_"
         cx="207.39999"
         cy="392.89999"
         r="6.0999999"
         style="fill:#b2b3b3" />
      <circle
         id="id505_"
         cx="685.90002"
         cy="392.89999"
         r="13.7"
         style="fill:#333333" />
      <circle
         id="id501_"
         cx="685.90002"
         cy="392.89999"
         r="7.8000002"
         style="fill:#b2b3b3" />
      <path
         id="id507_"
         d="m 1149.1,267.3 120.6,-17.6 c 3.4,-0.5 6.9,-0.8 10.3,-0.8 l 25.7,0 c 3.1,0 3.5,4.4 0.6,5.1 l -111.2,25.1 c 0.1,0 -29.9,1 -46,-11.8 z"

         style="fill:#cecfcf" />
      <path
         id="id437_"
         d="m 1193.6,277.6 c -6.3,0 -26.9,-0.7 -40.5,-9.4 L 1270,251.1 c 3.3,-0.5 6.7,-0.7 10.1,-0.7 l 25.7,0 c 0.8,0 1,0.7 1,0.9 0,0.3 0,1 -0.8,1.1 l -111,25.2 c -0.2,0 -0.7,0 -1.4,0 z"

         style="fill:#d8d9d8" />
      <path
         id="id433_"
         d="m 513.2,337.9 32.6,-11.1 c 9.1,-3.1 18.7,-4.7 28.3,-4.7 l 31.3,0 c 3.4,0 6.8,-0.2 10.1,-0.6 L 850.3,292 c 10.5,-1.3 20.2,-6.7 26.7,-15.1 l 56.2,-71.1 c 1.2,-1.6 3,-2.6 5,-2.9 l 11.8,-1.8 c 1.3,-0.2 2.4,1.1 1.8,2.4 l -32.4,76.1 c -3.7,8.7 -11.4,15 -20.6,16.9 l -109.6,22.6 0,18.9 -144.4,21.9 -131.6,0 0,-22 z"

         style="fill:#cecfcf" />
      <path
         id="id439_"
         d="m 516.2,356.8 0,-16.7 30.6,-10.4 c 8.8,-3 18,-4.5 27.3,-4.5 l 31.3,0 c 3.5,0 7,-0.2 10.5,-0.7 L 850.7,295 c 11.4,-1.4 21.6,-7.2 28.7,-16.2 l 57.4,-72.5 11.3,-1.8 -31.5,73.9 c -3.3,7.8 -10.2,13.4 -18.4,15.1 l -112,23.1 0,18.7 -141.7,21.5 -128.3,0 z"

         style="fill:#e5e6e4" />
      <polygon
         id="id503_"
         points="643.5,351.8 643.5,375.7 612.4,382.6 612.4,344.9 "
         style="fill:#bfbfbe" />
      <polygon
         id="id431_"
         points="490.1,336.2 490.1,391.4 499.9,395.3 499.9,332.3 "
         style="fill:#bfbfbe" />
      <path
         id="id504_"
         d="m 521.1,327.4 c -14.1,0 -21.1,4.9 -21.1,4.9 l 0,31.5 0,31.5 c 0,0 7,4.9 21.1,4.9 18.5,0 61,-4.8 82.9,-7.4 7.7,-0.9 13.5,-7.4 13.5,-15.2 l 0,-13.8 0,-13.8 c 0,-7.7 -5.8,-14.3 -13.5,-15.2 -21.9,-2.6 -64.4,-7.4 -82.9,-7.4 z"

         style="fill:#c54e5a" />
      <g
         id="id490_">
        <path
           id="id545_"
           d="m 521.1,327.4 c -1.3,0 -2.6,0.1 -3.8,0.1 l 0,72.5 c 1.2,0.1 2.4,0.1 3.8,0.1 1.2,0 2.4,0 3.8,-0.1 l 0,-72.6 c -1.4,0 -2.7,0 -3.8,0 z"
  
           style="fill:#ffffff" />
        <path
           id="id600_"
           d="m 535.8,328 0,71.6 c 2.4,-0.2 4.9,-0.3 7.5,-0.5 l 0,-70.5 c -2.6,-0.3 -5.1,-0.5 -7.5,-0.6 z"
  
           style="fill:#ffffff" />
      </g>
    </g>
  </g>
</svg>
